<svg xmlns="http://www.w3.org/2000/svg" version="1.1" xmlns:xlink="http://www.w3.org/1999/xlink" xmlns:svgjs="http://svgjs.com/svgjs" height="69.9567373524541" width="288.08000183105463"><defs id="SvgjsDefs1132"></defs><g id="SvgjsG1133" rel="mainfill" name="main_text" xmlns:name="main_text" transform="translate(79.05999994277948,-201.9116307134214)" fill="#3cadb2"><path d="M16.29 238.86C16.29 239.84 17.08 240.31 18.65 240.31C20.22 240.31 21.00 239.84 21.00 238.86L21.00 213.93C21.00 212.87 20.57 212.36 19.71 212.36L4.24 212.36C3.38 212.36 2.94 212.87 2.94 213.93L2.94 238.86C2.94 239.84 3.73 240.31 5.30 240.31C6.87 240.31 7.66 239.84 7.66 238.86L7.66 216.37L16.29 216.37L16.29 238.86ZM34.86 216.37C37.77 216.37 39.22 217.94 39.22 221.12C39.22 224.30 37.77 225.87 34.86 225.87L31.60 225.87L31.60 216.37ZM35.29 229.87C40.63 229.87 43.93 226.77 43.93 221.12C43.93 215.46 40.63 212.36 35.29 212.36L28.38 212.36C27.40 212.36 26.89 212.87 26.89 213.85L26.89 238.86C26.89 239.84 27.68 240.31 29.25 240.31C30.82 240.31 31.60 239.84 31.60 238.86L31.60 229.87ZM62.15 231.28C62.15 234.46 60.26 236.47 57.48 236.47C54.69 236.47 52.80 234.46 52.80 231.28L52.80 221.08C52.80 217.90 54.69 215.89 57.48 215.89C60.26 215.89 62.15 217.90 62.15 221.08ZM66.82 220.92C66.82 218.21 65.92 216.01 64.15 214.36C62.38 212.71 60.15 211.89 57.48 211.89C54.81 211.89 52.57 212.71 50.80 214.36C49.04 216.01 48.13 218.21 48.13 220.92L48.13 231.44C48.13 234.15 49.04 236.35 50.80 238.00C52.57 239.65 54.81 240.47 57.48 240.47C60.15 240.47 62.38 239.65 64.15 238.00C65.92 236.35 66.82 234.15 66.82 231.44ZM94.81 225.51C94.81 222.80 93.91 220.61 92.14 218.96C90.38 217.31 88.14 216.48 85.47 216.48L85.47 213.50C85.47 212.52 84.68 212.05 83.11 212.05C81.54 212.05 80.76 212.52 80.76 213.50L80.76 216.48C78.09 216.48 75.85 217.31 74.08 218.96C72.32 220.61 71.41 222.80 71.41 225.51L71.41 226.85C71.41 229.56 72.32 231.76 74.08 233.40C75.85 235.05 78.09 235.88 80.76 235.88L80.76 238.86C80.76 239.84 81.54 240.31 83.11 240.31C84.68 240.31 85.47 239.84 85.47 238.86L85.47 235.88C88.14 235.88 90.38 235.05 92.14 233.40C93.91 231.76 94.81 229.56 94.81 226.85ZM90.14 226.69C90.14 229.87 88.26 231.87 85.47 231.87L85.47 220.49C88.26 220.49 90.14 222.49 90.14 225.67ZM76.09 225.67C76.09 222.49 77.97 220.49 80.76 220.49L80.76 231.87C77.97 231.87 76.09 229.87 76.09 226.69ZM117.94 213.50C117.94 212.52 117.15 212.05 115.58 212.05C114.68 212.05 113.97 212.28 113.54 212.71L104.51 221.31L104.51 213.50C104.51 212.52 103.72 212.05 102.15 212.05C100.58 212.05 99.80 212.52 99.80 213.50L99.80 238.86C99.80 239.84 100.58 240.31 102.15 240.31C103.72 240.31 104.51 239.84 104.51 238.86L104.51 227.28L113.22 219.04L113.22 238.86C113.22 239.84 114.01 240.31 115.58 240.31C117.15 240.31 117.94 239.84 117.94 238.86L117.94 213.50ZM139.29 243.34C139.29 244.32 140.08 244.79 141.65 244.79C143.22 244.79 144.00 244.32 144.00 243.34L144.00 237.57C144.00 236.51 143.57 236.00 142.71 236.00L141.53 236.00L141.53 213.93C141.53 212.87 141.10 212.36 140.24 212.36L133.05 212.36C128.54 212.36 125.63 215.11 125.63 219.82L125.63 225.04C125.63 229.13 125.00 232.78 123.75 236.00L122.77 236.00C121.90 236.00 121.47 236.51 121.47 237.57L121.47 243.34C121.47 244.32 122.25 244.79 123.83 244.79C125.40 244.79 126.18 244.32 126.18 243.34L126.18 240L139.29 240ZM128.61 236.00C129.75 232.62 130.34 228.97 130.34 225.08L130.34 220.29C130.34 217.66 131.44 216.37 133.64 216.37L136.82 216.37L136.82 236.00ZM162.42 240C163.24 240 163.67 239.33 163.67 238.00C163.67 236.66 163.24 236.00 162.42 236.00L152.64 236.00L152.64 227.71L161.24 227.71C162.06 227.71 162.50 227.04 162.50 225.71C162.50 224.37 162.06 223.71 161.24 223.71L152.64 223.71L152.64 216.37L162.22 216.37C163.05 216.37 163.48 215.70 163.48 214.36C163.48 213.03 163.05 212.36 162.22 212.36L149.23 212.36C148.36 212.36 147.93 212.87 147.93 213.93L147.93 238.43C147.93 239.49 148.36 240 149.23 240L162.42 240ZM172.98 223.98L172.98 213.50C172.98 212.52 172.19 212.05 170.62 212.05C169.05 212.05 168.27 212.52 168.27 213.50L168.27 238.86C168.27 239.84 169.05 240.31 170.62 240.31C172.19 240.31 172.98 239.84 172.98 238.86L172.98 227.99L181.30 227.99L181.30 238.86C181.30 239.84 182.09 240.31 183.66 240.31C185.23 240.31 186.01 239.84 186.01 238.86L186.01 213.50C186.01 212.52 185.23 212.05 183.66 212.05C182.09 212.05 181.30 212.52 181.30 213.50L181.30 223.98ZM191.19 212.36C190.37 212.36 189.94 213.03 189.94 214.36C189.94 215.70 190.37 216.37 191.19 216.37L197.12 216.37L197.12 238.86C197.12 239.84 197.91 240.31 199.48 240.31C201.05 240.31 201.83 239.84 201.83 238.86L201.83 216.37L207.76 216.37C208.59 216.37 209.02 215.70 209.02 214.36C209.02 213.03 208.59 212.36 207.76 212.36L191.19 212.36Z" fill="#3cadb2" style="fill: rgb(60, 173, 178);"></path></g><g id="SvgjsG1134" rel="mainfill" name="slogan_text" xmlns:name="slogan_text" transform="translate(81.31999999284739,-180.23163803764015)" fill="#000000"><path d="M4.10 240.11C4.78 240.11 5.40 239.96 5.65 239.89L5.49 239.10C5.23 239.14 4.74 239.27 4.19 239.27C2.25 239.27 1.67 238.43 1.67 236.61C1.67 234.90 2.52 233.92 3.80 233.92C4.55 233.92 5.01 234.11 5.36 234.26L5.66 233.49C5.31 233.31 4.74 233.11 3.83 233.11C1.91 233.11 0.68 234.47 0.68 236.64C0.68 239.09 1.71 240.11 4.10 240.11ZM9.99 240L10.95 240L10.95 234.11L13.23 234.11L13.23 233.28L7.70 233.28L7.70 234.11L9.99 234.11ZM18.47 240.15C20.23 240.15 21.54 239.00 21.54 236.64C21.54 234.39 20.55 233.11 18.56 233.11C16.76 233.11 15.47 234.39 15.47 236.72C15.47 238.92 16.62 240.15 18.47 240.15ZM18.55 239.35C16.96 239.35 16.47 238.06 16.47 236.65C16.47 235.39 16.90 233.91 18.52 233.91C20.17 233.91 20.55 235.40 20.55 236.64C20.55 237.98 20.16 239.35 18.55 239.35ZM24.60 240L25.53 240L25.53 235.51L25.47 234.40L27.39 240L28.70 240L30.81 234.42L30.77 235.51L30.77 240L31.71 240L31.71 233.28L30.41 233.28L28.06 239.35L25.94 233.28L24.60 233.28ZM36.53 240.10C37.86 240.10 38.55 239.43 38.87 239.23C38.94 239.83 39.58 240.07 40.13 240.07L40.31 240.07L40.37 239.31C40.07 239.27 39.74 239.16 39.74 238.66L39.74 234.93C39.74 233.60 38.84 233.12 37.36 233.12C36.36 233.12 35.50 233.39 35.20 233.52L35.41 234.28C35.69 234.19 36.46 233.97 37.07 233.97C38.27 233.97 38.79 234.18 38.79 235.25L38.79 236.15L37.20 236.17C36.10 236.20 34.62 236.56 34.62 238.19C34.62 239.43 35.33 240.10 36.53 240.10ZM36.78 239.31C36.04 239.31 35.56 239.00 35.56 238.11C35.56 237.43 36.14 236.93 37.18 236.89L38.79 236.83L38.79 238.57C38.62 238.67 37.63 239.31 36.78 239.31ZM44.97 240L45.93 240L45.93 234.11L48.22 234.11L48.22 233.28L42.68 233.28L42.68 234.11L44.97 234.11ZM53.46 240.15C55.21 240.15 56.52 239.00 56.52 236.64C56.52 234.39 55.53 233.11 53.54 233.11C51.75 233.11 50.45 234.39 50.45 236.72C50.45 238.92 51.60 240.15 53.46 240.15ZM53.53 239.35C51.94 239.35 51.45 238.06 51.45 236.65C51.45 235.39 51.88 233.91 53.50 233.91C55.15 233.91 55.53 235.40 55.53 236.64C55.53 237.98 55.14 239.35 53.53 239.35ZM58.83 240.21C59.64 239.95 60.18 239.53 60.54 238.84C61.00 237.96 61.20 236.49 61.38 234.10L63.55 234.10L63.55 240L64.51 240L64.51 233.28L60.49 233.28C60.42 235.60 60.18 237.54 59.77 238.34C59.46 238.92 58.97 239.18 58.51 239.37ZM70.57 240.15C72.32 240.15 73.63 239.00 73.63 236.64C73.63 234.39 72.64 233.11 70.65 233.11C68.86 233.11 67.56 234.39 67.56 236.72C67.56 238.92 68.71 240.15 70.57 240.15ZM70.64 239.35C69.05 239.35 68.56 238.06 68.56 236.65C68.56 235.39 68.99 233.91 70.61 233.91C72.26 233.91 72.64 235.40 72.64 236.64C72.64 237.98 72.25 239.35 70.64 239.35ZM76.69 240L77.66 240L77.66 234.11L80.87 234.11L80.87 233.28L76.69 233.28ZM83.70 240L84.67 240L87.91 235.44L88.42 234.58L88.40 235.42L88.40 240L89.37 240L89.37 233.28L88.40 233.28L85.17 237.86L84.65 238.72L84.67 237.87L84.67 233.28L83.70 233.28ZM96.57 240L97.54 240L97.54 233.28L96.57 233.28L96.57 236.25C96.10 236.41 95.56 236.58 94.88 236.58C93.63 236.58 93.46 236.08 93.46 235.33L93.46 233.28L92.50 233.28L92.50 235.44C92.50 236.64 92.90 237.40 94.55 237.40C95.36 237.40 95.96 237.23 96.57 237.06ZM103.76 240.15C104.86 240.15 105.67 239.91 105.89 239.83L105.72 239.03C105.42 239.11 104.55 239.31 104.06 239.31C102.67 239.31 101.61 238.97 101.57 236.83L106.01 236.83L106.01 236.47C106.01 234.24 105.25 233.11 103.59 233.11C101.91 233.11 100.59 234.05 100.59 236.77C100.59 239.34 101.82 240.15 103.76 240.15ZM101.59 236.10C101.71 234.60 102.43 233.84 103.44 233.84C104.50 233.84 104.99 234.75 104.99 236.10ZM111.92 240.11C112.61 240.11 113.22 239.96 113.47 239.89L113.31 239.10C113.05 239.14 112.56 239.27 112.02 239.27C110.07 239.27 109.49 238.43 109.49 236.61C109.49 234.90 110.34 233.92 111.62 233.92C112.37 233.92 112.83 234.11 113.18 234.26L113.48 233.49C113.14 233.31 112.56 233.11 111.65 233.11C109.73 233.11 108.50 234.47 108.50 236.64C108.50 239.09 109.53 240.11 111.92 240.11ZM121.52 240.10L121.72 239.37C121.31 239.26 120.72 238.86 120.08 238.12L118.66 236.47L121.43 233.28L120.29 233.28L117.58 236.52L119.51 238.86C120.39 239.91 121.07 240.07 121.52 240.10ZM116.32 240L117.29 240L117.29 233.28L116.32 233.28ZM125.62 240.10C126.95 240.10 127.64 239.43 127.96 239.23C128.03 239.83 128.67 240.07 129.22 240.07L129.40 240.07L129.46 239.31C129.16 239.27 128.83 239.16 128.83 238.66L128.83 234.93C128.83 233.60 127.93 233.12 126.44 233.12C125.45 233.12 124.59 233.39 124.29 233.52L124.50 234.28C124.78 234.19 125.55 233.97 126.16 233.97C127.35 233.97 127.88 234.18 127.88 235.25L127.88 236.15L126.28 236.17C125.19 236.20 123.71 236.56 123.71 238.19C123.71 239.43 124.41 240.10 125.62 240.10ZM125.87 239.31C125.13 239.31 124.65 239.00 124.65 238.11C124.65 237.43 125.23 236.93 126.27 236.89L127.88 236.83L127.88 238.57C127.71 238.67 126.71 239.31 125.87 239.31ZM132.10 240.07C132.67 240.05 133.34 239.90 134.05 238.89L134.92 237.56C135.03 237.58 135.26 237.58 135.40 237.58L136.39 237.58L136.39 240L137.37 240L137.37 233.28L135.04 233.28C133.66 233.28 132.62 234.12 132.62 235.51C132.62 236.42 133.14 237.10 133.93 237.34C133.91 237.38 133.41 238.23 133.38 238.24C132.93 238.91 132.62 239.15 131.95 239.30ZM135.30 236.83C134.37 236.83 133.61 236.46 133.61 235.52C133.61 234.61 134.13 234.11 135.10 234.11L136.39 234.11L136.39 236.83ZM149.91 240.10L150.11 239.37C149.70 239.26 149.11 238.86 148.47 238.12L147.05 236.47L149.81 233.28L148.68 233.28L145.96 236.52L147.90 238.86C148.78 239.91 149.46 240.07 149.91 240.10ZM144.71 240L145.68 240L145.68 233.28L144.71 233.28ZM151.97 240.21C152.78 239.95 153.32 239.53 153.68 238.84C154.13 237.96 154.34 236.49 154.51 234.10L156.69 234.10L156.69 240L157.65 240L157.65 233.28L153.63 233.28C153.55 235.60 153.32 237.54 152.90 238.34C152.59 238.92 152.10 239.18 151.65 239.37ZM161.17 240L162.14 240L165.37 235.44L165.89 234.58L165.87 235.42L165.87 240L166.84 240L166.84 233.28L165.87 233.28L162.63 237.86L162.11 238.72L162.14 237.87L162.14 233.28L161.17 233.28ZM170.35 240L171.33 240L171.33 237.05L174.81 237.05L174.81 240L175.78 240L175.78 233.28L174.81 233.28L174.81 236.22L171.33 236.22L171.33 233.28L170.35 233.28ZM179.30 240L180.27 240L183.50 235.44L184.02 234.58L184.00 235.42L184.00 240L184.97 240L184.97 233.28L184.00 233.28L180.76 237.86L180.24 238.72L180.27 237.87L180.27 233.28L179.30 233.28ZM193.69 240.10L193.88 239.37C193.48 239.26 192.89 238.86 192.25 238.12L190.82 236.47L193.59 233.28L192.46 233.28L189.74 236.52L191.67 238.86C192.56 239.91 193.23 240.07 193.69 240.10ZM188.49 240L189.46 240L189.46 233.28L188.49 233.28ZM197.78 240.10C199.11 240.10 199.80 239.43 200.12 239.23C200.19 239.83 200.83 240.07 201.39 240.07L201.56 240.07L201.62 239.31C201.33 239.27 200.99 239.16 200.99 238.66L200.99 234.93C200.99 233.60 200.10 233.12 198.61 233.12C197.61 233.12 196.75 233.39 196.46 233.52L196.66 234.28C196.95 234.19 197.71 233.97 198.33 233.97C199.52 233.97 200.05 234.18 200.05 235.25L200.05 236.15L198.45 236.17C197.35 236.20 195.88 236.56 195.88 238.19C195.88 239.43 196.58 240.10 197.78 240.10ZM198.03 239.31C197.29 239.31 196.81 239.00 196.81 238.11C196.81 237.43 197.39 236.93 198.44 236.89L200.05 236.83L200.05 238.57C199.87 238.67 198.88 239.31 198.03 239.31Z" fill="#000000" style="fill: rgb(0, 0, 0);"></path></g><g id="SvgjsG1135" rel="mainfill" name="symbol" xmlns:name="symbol_mainfill" transform="translate(-1.456521739130441,0.020391304977238168) scale(0.728260869565217)" fill="#3cadb2"><path d="M69.992-0.028c-4.188,0-8.044,1.072-11.768,2.104c-2.856,0.796-5.584,1.52-8.332,1.776  c6.463,3.992,11.979,8.648,14.584,12.04c0.672,0.88,0.5,2.132-0.369,2.808c-0.367,0.28-0.795,0.412-1.219,0.412  c-0.601,0-1.193-0.268-1.584-0.78c-4-5.22-16.084-14.084-26.917-17.32C32,0.424,29.324-0.028,26-0.028c-13.236,0-24,10.764-24,24  c0,6.9,2.932,13.392,8.08,17.956c0.196,21.904,7.244,54.104,17.796,54.104c5.112,0,6.804-7.048,8.944-15.968  c2.26-9.416,4.824-20.092,11.18-20.092c6.352,0,8.92,10.68,11.18,20.092c2.141,8.92,3.828,15.968,8.94,15.968  c6.147,0,10.403-10.484,12.888-19.269C84,66.176,85.82,53.225,85.92,41.924C91.068,37.356,94,30.868,94,23.968  C93.992,10.736,83.232-0.028,69.992-0.028z" fill="#3cadb2" style="fill: rgb(60, 173, 178);"></path></g></svg>